<svg width="48" height="48" viewBox="0 0 48 48" fill="none" xmlns="http://www.w3.org/2000/svg">
<path fill-rule="evenodd" clip-rule="evenodd" d="M44.7489 7H2.86886C2.38898 7 2 7.38907 2 7.86895V19.4347C2 19.6737 2.09857 19.9022 2.27227 20.0663L6.38759 23.953C6.59001 33.3874 14.3268 41 23.8089 41C33.291 41 41.0278 33.3873 41.2302 23.9529L45.3455 20.0663C45.5193 19.9021 45.6178 19.6736 45.6178 19.4346V7.86895C45.6178 7.38907 45.2288 7 44.7489 7ZM23.8092 39.2626C15.4501 39.2626 8.59693 32.6913 8.14465 24.4431H39.4738C39.0216 32.6913 32.1684 39.2626 23.8092 39.2626ZM7.59761 22.7053H40.0213L42.693 20.1819H4.92584L7.59761 22.7053ZM3.73828 18.4442H43.8806V8.73804H3.73828V18.4442Z" fill="#7367F0"/>
<path fill-rule="evenodd" clip-rule="evenodd" d="M18.8008 34.929C18.8008 33.1843 20.9538 31.8687 23.809 31.8687C26.6642 31.8687 28.8172 33.1843 28.8172 34.929C28.8172 36.6736 26.6641 37.9893 23.809 37.9893C20.9539 37.9893 18.8008 36.6736 18.8008 34.929ZM20.5391 34.9293C20.5391 35.4558 21.8435 36.2518 23.8095 36.2518C25.7756 36.2518 27.08 35.4557 27.08 34.9292C27.08 34.4027 25.7756 33.6067 23.8095 33.6067C21.8435 33.6067 20.5391 34.4028 20.5391 34.9293Z" fill="#7367F0"/>
</svg>
