<svg width="48" height="48" viewBox="0 0 48 48" fill="none" xmlns="http://www.w3.org/2000/svg">
<path d="M24.1892 8C31.6495 8 35.8816 12.8387 36.4971 18.6823L36.6854 18.6822C41.4864 18.6822 45.3784 22.486 45.3784 27.1783C45.3784 31.8705 41.4864 35.6743 36.6854 35.6743L29.8272 35.6731L32.7526 32.795L36.9071 32.796C39.961 32.796 42.4366 30.3575 42.4366 27.3496C42.4366 24.3416 39.9609 21.9032 36.9071 21.9032L35.2347 21.9033C34.3502 21.9033 33.5778 21.2202 33.5778 20.3497C33.5778 14.7853 29.2055 10.8783 24.1892 10.8783C19.1729 10.8783 14.8006 14.8558 14.8006 20.3497C14.8006 21.2202 14.0281 21.9033 13.1437 21.9033L11.4713 21.9032C8.41743 21.9032 5.94178 24.3416 5.94178 27.3496C5.94178 30.3086 8.33748 32.7164 11.3226 32.794C11.1196 33.7582 11.2906 34.7954 11.8687 35.6757L11.693 35.6743C6.89199 35.6743 3 31.8705 3 27.1783C3 22.486 6.89199 18.6822 11.6931 18.6822L11.8813 18.6823C12.5004 12.8003 16.7289 8 24.1892 8Z" fill="#7367F0"/>
<path d="M31.9202 25.6888C32.4268 25.1669 33.2482 25.1669 33.7548 25.6888C34.2277 26.176 34.2592 26.9457 33.8494 27.4706L33.7548 27.5791L22.0792 39.6086C21.5538 40.1499 20.7051 40.1218 20.2122 39.5742L20.1241 39.4654L16.2322 34.119C15.8023 33.5284 15.9185 32.6906 16.4916 32.2477C17.029 31.8325 17.7773 31.9117 18.2229 32.4099L18.3079 32.515L21.3023 36.6286L31.9202 25.6888Z" fill="#7367F0"/>
</svg>
