<svg width="48" height="48" viewBox="0 0 48 48" fill="none" xmlns="http://www.w3.org/2000/svg">
<path d="M14.9609 36.6999L21.1609 41.4999C21.9609 42.2999 23.7609 42.6999 24.9609 42.6999H32.5609C34.9609 42.6999 37.5609 40.8999 38.1609 38.4999L42.9609 23.8999C43.9609 21.0999 42.1609 18.6999 39.1609 18.6999H31.1609C29.9609 18.6999 28.9609 17.6999 29.1609 16.2999L30.1609 9.89994C30.5609 8.09994 29.3609 6.09994 27.5609 5.49994C25.9609 4.89994 23.9609 5.69994 23.1609 6.89994L14.9609 19.0999" stroke="#7367F0" stroke-width="2.5" stroke-miterlimit="10"/>
<path d="M4.76172 36.6998V17.0998C4.76172 14.2998 5.96172 13.2998 8.76172 13.2998H10.7617C13.5617 13.2998 14.7617 14.2998 14.7617 17.0998V36.6998C14.7617 39.4998 13.5617 40.4998 10.7617 40.4998H8.76172C5.96172 40.4998 4.76172 39.4998 4.76172 36.6998Z" stroke="#7367F0" stroke-width="2.5" stroke-linecap="round" stroke-linejoin="round"/>
</svg>
