<svg width="32" height="32" viewBox="0 0 32 32" fill="none" xmlns="http://www.w3.org/2000/svg">
<path d="M16.0001 20.6665C18.9467 20.6665 21.3334 18.2798 21.3334 15.3332V7.99984C21.3334 5.05317 18.9467 2.6665 16.0001 2.6665C13.0534 2.6665 10.6667 5.05317 10.6667 7.99984V15.3332C10.6667 18.2798 13.0534 20.6665 16.0001 20.6665Z" stroke="#7367F0" stroke-width="1.5" stroke-linecap="round" stroke-linejoin="round"/>
<path d="M5.80005 12.8667V15.1334C5.80005 20.76 10.3734 25.3334 16 25.3334C21.6267 25.3334 26.2 20.76 26.2 15.1334V12.8667" stroke="#7367F0" stroke-width="1.5" stroke-linecap="round" stroke-linejoin="round"/>
<path d="M14.1467 8.57316C15.3467 8.13316 16.6534 8.13316 17.8534 8.57316" stroke="#7367F0" stroke-width="1.5" stroke-linecap="round" stroke-linejoin="round"/>
<path d="M14.9333 11.3998C15.64 11.2131 16.3733 11.2131 17.08 11.3998" stroke="#7367F0" stroke-width="1.5" stroke-linecap="round" stroke-linejoin="round"/>
<path d="M16 25.3335V29.3335" stroke="#7367F0" stroke-width="1.5" stroke-linecap="round" stroke-linejoin="round"/>
</svg>
