<svg width="32" height="32" viewBox="0 0 32 32" fill="none" xmlns="http://www.w3.org/2000/svg">
<path d="M21.3334 8.39984V7.99984C21.3334 5.05317 18.9467 2.6665 16.0001 2.6665C13.0534 2.6665 10.6667 5.05317 10.6667 7.99984V14.6665" stroke="#7367F0" stroke-width="1.5" stroke-linecap="round" stroke-linejoin="round"/>
<path d="M12.0532 18.9198C13.0266 19.9998 14.4399 20.6665 15.9999 20.6665C18.9466 20.6665 21.3332 18.2798 21.3332 15.3332V14.6665" stroke="#7367F0" stroke-width="1.5" stroke-linecap="round" stroke-linejoin="round"/>
<path d="M9.04004 22.6C10.8667 24.2934 13.3067 25.3334 16 25.3334C21.6267 25.3334 26.2 20.76 26.2 15.1334V12.8667" stroke="#7367F0" stroke-width="1.5" stroke-linecap="round" stroke-linejoin="round"/>
<path d="M5.80005 12.8667V15.1334C5.80005 16.5467 6.08005 17.88 6.60005 19.1067" stroke="#7367F0" stroke-width="1.5" stroke-linecap="round" stroke-linejoin="round"/>
<path d="M26.76 3.78662L5.23999 25.32" stroke="#7367F0" stroke-width="1.5" stroke-linecap="round" stroke-linejoin="round"/>
<path d="M14.6667 4V8" stroke="#7367F0" stroke-width="1.5" stroke-linecap="round" stroke-linejoin="round"/>
<path d="M16 25.3335V29.3335" stroke="#7367F0" stroke-width="1.5" stroke-linecap="round" stroke-linejoin="round"/>
</svg>
