<svg width="24" height="24" viewBox="0 0 24 24" fill="none" xmlns="http://www.w3.org/2000/svg">
<path d="M3.74983 21C3.94872 21 4.13945 20.9208 4.28007 20.78L9.24425 15.8109L10.1802 16.7809C10.8857 17.5271 11.858 17.9629 12.884 17.9926C13.226 17.9936 13.5656 17.936 13.8882 17.8222C14.3866 17.6504 14.8245 17.3375 15.1486 16.9214C15.4728 16.5054 15.6694 16.0041 15.7144 15.4784C15.7958 14.717 15.7394 13.9472 15.5479 13.2059L15.3874 12.4236C15.357 12.2986 15.3592 12.1677 15.3939 12.0438C15.4286 11.9198 15.4945 11.8068 15.5854 11.7157L16.7756 10.5236C16.8226 10.4764 16.8861 10.4494 16.9526 10.4485C16.976 10.4441 17.0001 10.4464 17.0222 10.455C17.0443 10.4636 17.0636 10.4783 17.0779 10.4973C17.4546 10.8972 17.9614 11.1495 18.5073 11.2089C19.0531 11.2684 19.6023 11.131 20.0561 10.8216C20.3224 10.6316 20.5441 10.3857 20.7058 10.1012C20.8675 9.81666 20.9652 9.50026 20.9923 9.17404C21.0193 8.84781 20.975 8.51961 20.8624 8.21228C20.7498 7.90495 20.5717 7.62588 20.3404 7.3945L16.6497 3.69865C16.2707 3.30985 15.7673 3.06675 15.2274 3.01186C14.6875 2.95697 14.1455 3.09377 13.6962 3.39836C13.4299 3.58832 13.2081 3.83411 13.0463 4.11862C12.8846 4.40313 12.7867 4.71951 12.7596 5.04574C12.7325 5.37196 12.7767 5.70019 12.8893 6.00755C13.0018 6.31491 13.1799 6.59402 13.4112 6.82545L13.4682 6.8825C13.5112 6.92582 13.5353 6.98438 13.5353 7.04541C13.5353 7.10645 13.5112 7.16501 13.4682 7.20832L12.2682 8.40949C12.1762 8.50144 12.0618 8.56785 11.9364 8.6022C11.8109 8.63656 11.6787 8.63767 11.5527 8.60543L10.94 8.44853C10.1863 8.25149 9.40324 8.19224 8.62851 8.27361C8.07904 8.33057 7.55729 8.5436 7.12476 8.88756C6.69224 9.23153 6.36697 9.69211 6.1873 10.215C5.99122 10.7523 5.95256 11.3346 6.07586 11.8931C6.19916 12.4517 6.47929 12.9634 6.88329 13.3681L8.20177 14.7344L3.21959 19.7185C3.11473 19.8235 3.04333 19.9572 3.0144 20.1029C2.98548 20.2485 3.00033 20.3994 3.05708 20.5365C3.11383 20.6737 3.20994 20.7909 3.33324 20.8734C3.45655 20.9559 3.60152 21 3.74983 21ZM7.60103 10.715C7.68554 10.4592 7.84231 10.2335 8.05235 10.0651C8.2624 9.89664 8.51672 9.79278 8.78451 9.76606C8.95718 9.74807 9.13066 9.73905 9.30425 9.73904C9.72973 9.73906 10.1534 9.79381 10.565 9.90194L11.1822 10.0596C11.5604 10.1554 11.9569 10.1514 12.3331 10.0481C12.7092 9.94486 13.0523 9.74576 13.3287 9.47027L14.5287 8.2691C14.8525 7.94403 15.0343 7.50371 15.0343 7.04466C15.0343 6.58561 14.8525 6.14529 14.5287 5.82022L14.4717 5.76316C14.394 5.68562 14.3343 5.59196 14.2967 5.4888C14.2592 5.38564 14.2447 5.27549 14.2543 5.16611C14.2638 5.05673 14.2973 4.95078 14.3522 4.85574C14.4071 4.7607 14.4822 4.67888 14.5722 4.61605C14.7322 4.51907 14.9208 4.48031 15.106 4.50629C15.2913 4.53228 15.4619 4.62142 15.5892 4.75869L19.2821 8.45529C19.3598 8.53283 19.4195 8.62649 19.4571 8.72965C19.4946 8.83281 19.5091 8.94296 19.4995 9.05234C19.49 9.16172 19.4565 9.26767 19.4016 9.36271C19.3467 9.45775 19.2716 9.53957 19.1816 9.6024C19.0198 9.7007 18.8289 9.73949 18.6416 9.71209C18.4544 9.68468 18.2825 9.5928 18.1556 9.45226C18.0013 9.29299 17.8167 9.1663 17.6127 9.07965C17.4086 8.993 17.1893 8.94815 16.9676 8.94777C16.5001 8.9499 16.0517 9.13406 15.7174 9.46127L14.5279 10.6527C14.2578 10.9232 14.061 11.2582 13.956 11.6259C13.8511 11.9937 13.8414 12.3822 13.9279 12.7547L14.0922 13.549C14.2435 14.1281 14.2895 14.7298 14.2279 15.3252C14.21 15.5681 14.1212 15.8003 13.9725 15.993C13.8238 16.1857 13.6219 16.3305 13.3917 16.4093C13.008 16.5102 12.6037 16.5004 12.2254 16.3808C11.8471 16.2612 11.5104 16.0368 11.2542 15.7336L7.95427 12.3178C7.7485 12.1124 7.60586 11.8522 7.54326 11.5682C7.48065 11.2841 7.5007 10.988 7.60103 10.715Z" fill="white"/>
</svg>
