<svg width="24" height="24" viewBox="0 0 24 24" fill="none" xmlns="http://www.w3.org/2000/svg">
<path d="M12.7577 22.2354C12.7578 22.4383 12.6747 22.6328 12.5266 22.7763C12.4162 22.8832 12.2754 22.956 12.1221 22.9854C11.9689 23.0148 11.81 22.9996 11.6656 22.9416C11.5212 22.8836 11.3977 22.7855 11.3108 22.6597C11.2239 22.5338 11.1775 22.3859 11.1774 22.2346L11.176 15.0486L9.17654 15.0141C8.57435 15.0136 7.98465 14.8466 7.47683 14.5328C6.96902 14.2189 6.56422 13.7712 6.31008 13.2424C6.05447 12.7359 5.95371 12.1692 6.01966 11.6094C6.08561 11.0495 6.31553 10.5197 6.68231 10.0824C7.19866 9.46514 7.82593 8.94326 8.53396 8.54189L9.10713 8.21321C9.22497 8.14561 9.3226 8.04948 9.39043 7.93427C9.45826 7.81906 9.49397 7.68871 9.49405 7.55604L9.49317 5.82473C9.4929 5.76252 9.46725 5.70291 9.42179 5.6589C9.37634 5.6149 9.31477 5.59006 9.25052 5.5898L9.16559 5.58976C8.82099 5.58967 8.48049 5.51684 8.16778 5.37636C7.85508 5.23588 7.5777 5.03112 7.35496 4.77634C7.13222 4.52156 6.96947 4.22289 6.87805 3.90112C6.78663 3.57935 6.76873 3.24222 6.82561 2.91322C6.9334 2.36962 7.23514 1.8802 7.67808 1.5305C8.12102 1.18081 8.67697 0.993097 9.24874 1.00019L14.7496 1.00391C15.0942 1.00394 15.4347 1.07669 15.7475 1.21711C16.0602 1.35752 16.3376 1.56222 16.5604 1.81695C16.7832 2.07167 16.946 2.3703 17.0375 2.69204C17.129 3.01378 17.147 3.3509 17.0902 3.67991C16.9827 4.23023 16.676 4.72521 16.2252 5.07594C15.7744 5.42667 15.2091 5.61016 14.6307 5.59346C14.6059 5.59004 14.5807 5.59339 14.5578 5.60313C14.5349 5.61287 14.5152 5.62861 14.5011 5.64858C14.4523 5.69723 14.425 5.76246 14.4252 5.83033L14.4266 7.54812C14.4268 7.67933 14.4618 7.80834 14.5283 7.92273C14.5948 8.03712 14.6906 8.13306 14.8064 8.20133L15.5085 8.64964C16.2032 9.0461 16.8184 9.56048 17.3248 10.1681C17.6828 10.5797 17.9097 11.0828 17.9782 11.6166C18.0466 12.1503 17.9535 12.6916 17.7103 13.1748C17.5548 13.4895 17.3448 13.7759 17.0893 14.0218C16.3031 14.7401 15.2545 15.127 14.1734 15.0976L12.7541 15.0731L12.7577 22.2354Z" fill="white"/>
</svg>
