<svg width="32" height="32" viewBox="0 0 32 32" fill="none" xmlns="http://www.w3.org/2000/svg">
<path d="M2.66699 11.9998V8.6665C2.66699 5.3465 5.34699 2.6665 8.66699 2.6665H12.0003" stroke="#7367F0" stroke-width="1.5" stroke-linecap="round" stroke-linejoin="round"/>
<path d="M20 2.6665H23.3333C26.6533 2.6665 29.3333 5.3465 29.3333 8.6665V11.9998" stroke="#7367F0" stroke-width="1.5" stroke-linecap="round" stroke-linejoin="round"/>
<path d="M29.333 21.3335V23.3335C29.333 26.6535 26.653 29.3335 23.333 29.3335H21.333" stroke="#7367F0" stroke-width="1.5" stroke-linecap="round" stroke-linejoin="round"/>
<path d="M12.0003 29.3333H8.66699C5.34699 29.3333 2.66699 26.6533 2.66699 23.3333V20" stroke="#7367F0" stroke-width="1.5" stroke-linecap="round" stroke-linejoin="round"/>
<path d="M13.0647 18.6394C11.6451 19.3869 11.6451 20.6131 13.0647 21.3606C14.6765 22.2131 17.3235 22.2131 18.9353 21.3606C20.3549 20.6131 20.3549 19.3869 18.9353 18.6394C17.3383 17.7869 14.6913 17.7869 13.0647 18.6394Z" stroke="#7367F0" stroke-width="1.5" stroke-linecap="round" stroke-linejoin="round"/>
<path d="M16.0682 14C16.0227 14 15.9659 14 15.9204 14C14.8523 13.9659 14 13.0795 14 12C14 10.8977 14.8977 10 16 10C17.1023 10 18 10.8977 18 12C17.9886 13.0909 17.1364 13.9659 16.0682 14Z" stroke="#7367F0" stroke-width="1.5" stroke-linecap="round" stroke-linejoin="round"/>
</svg>
