<svg width="186" height="62" viewBox="0 0 186 62" fill="none" xmlns="http://www.w3.org/2000/svg">
<g clip-path="url(#clip0_168_242943)">
<path d="M170.709 0.0002015H14.7788C14.2104 0.0002015 13.6488 0.0002015 13.0819 0.0033015C12.6074 0.0064015 12.1366 0.015407 11.6575 0.0229865C10.6167 0.0352343 9.57839 0.1268 8.5515 0.296887C7.52606 0.470677 6.53274 0.798321 5.60514 1.26874C4.67867 1.74313 3.83213 2.35956 3.09623 3.09566C2.35647 3.82969 1.73982 4.67813 1.26999 5.60835C0.79887 6.53672 0.472193 7.53156 0.301243 8.5585C0.128667 9.58414 0.0358025 10.6216 0.0234825 11.6616C0.0090985 12.1368 0.0075795 12.6136 0 13.0889V48.916C0.0075795 49.3973 0.0090985 49.8635 0.0234825 50.345C0.0358063 51.3849 0.128671 52.4223 0.301243 53.4479C0.471721 54.4755 0.798418 55.4709 1.26999 56.3996C1.7396 57.3268 2.35634 58.1718 3.09623 58.9018C3.82934 59.6411 4.67643 60.258 5.60514 60.7287C6.53274 61.2004 7.52595 61.53 8.5515 61.7065C9.57856 61.8752 10.6168 61.9668 11.6575 61.9805C12.1366 61.9911 12.6074 61.9971 13.0819 61.9971C13.6488 62.0002 14.2104 62.0002 14.7788 62.0002H170.709C171.266 62.0002 171.832 62.0002 172.389 61.9971C172.861 61.9971 173.346 61.9911 173.818 61.9805C174.857 61.9675 175.893 61.8759 176.918 61.7065C177.947 61.5288 178.944 61.1993 179.876 60.7287C180.804 60.2577 181.65 59.6409 182.382 58.9018C183.12 58.1689 183.738 57.3246 184.214 56.3996C184.682 55.4702 185.005 54.4749 185.173 53.4479C185.346 52.4222 185.442 51.385 185.461 50.345C185.467 49.8635 185.467 49.3973 185.467 48.916C185.479 48.3529 185.479 47.7929 185.479 47.2206V14.7812C185.479 14.2136 185.479 13.6505 185.467 13.0889C185.467 12.6136 185.467 12.1368 185.461 11.6615C185.442 10.6215 185.346 9.58422 185.173 8.55843C185.005 7.53209 184.681 6.53733 184.214 5.60829C183.257 3.74376 181.74 2.22604 179.876 1.2686C178.944 0.799331 177.947 0.471774 176.918 0.296748C175.893 0.125911 174.857 0.0343135 173.818 0.0227695C173.346 0.0152055 172.861 0.0061225 172.389 0.0031C171.832 0 171.266 0.0002015 170.709 0.0002015Z" fill="#A6A6A6"/>
<path d="M13.0896 60.6439C12.6173 60.6439 12.1565 60.6379 11.6879 60.6274C10.7173 60.6147 9.74894 60.5302 8.79078 60.3746C7.89734 60.2207 7.03184 59.9345 6.22283 59.5253C5.42123 59.1196 4.69011 58.5875 4.05748 57.9496C3.41569 57.3192 2.88136 56.588 2.47569 55.785C2.06554 54.9768 1.7817 54.1105 1.63404 53.2163C1.47458 52.2555 1.38831 51.284 1.37596 50.3101C1.36614 49.9832 1.35327 48.8948 1.35327 48.8948V13.0889C1.35327 13.0889 1.36697 12.0172 1.37604 11.7024C1.38786 10.73 1.47363 9.76001 1.63261 8.80068C1.78054 7.90403 2.06461 7.03526 2.47498 6.22442C2.87916 5.42201 3.41052 4.69028 4.04844 4.0576C4.68565 3.41891 5.41911 2.88413 6.22207 2.47277C7.02922 2.06494 7.89309 1.78073 8.78472 1.62966C9.74602 1.47244 10.7178 1.38744 11.6918 1.37537L13.0904 1.35645H172.382L173.797 1.37613C174.762 1.3876 175.725 1.47184 176.677 1.62814C177.578 1.78111 178.451 2.0673 179.267 2.47731C180.876 3.30632 182.185 4.6179 183.011 6.2282C183.414 7.03344 183.694 7.89513 183.84 8.78403C184.001 9.75123 184.091 10.7289 184.11 11.7092C184.114 12.1482 184.114 12.6197 184.114 13.0889C184.126 13.6702 184.126 14.2234 184.126 14.7812V47.2206C184.126 47.7838 184.126 48.3332 184.114 48.8872C184.114 49.3913 184.114 49.853 184.108 50.3282C184.09 51.2911 184.001 52.2513 183.843 53.2012C183.698 54.1018 183.416 54.9748 183.006 55.7897C182.598 56.5839 182.066 57.3088 181.432 57.9375C180.799 58.5789 180.066 59.114 179.263 59.5224C178.449 59.9347 177.577 60.2219 176.677 60.3746C175.719 60.531 174.751 60.6156 173.78 60.6274C173.326 60.6379 172.851 60.6439 172.389 60.6439L170.709 60.647L13.0896 60.6439Z" fill="black"/>
<path d="M38.3916 31.4661C38.4083 30.1724 38.752 28.9039 39.3906 27.7787C40.0292 26.6534 40.9421 25.708 42.0443 25.0304C41.3441 24.0304 40.4204 23.2074 39.3465 22.6269C38.2726 22.0463 37.0782 21.7242 35.858 21.686C33.2552 21.4128 30.7319 23.2435 29.4055 23.2435C28.0535 23.2435 26.0114 21.7131 23.8123 21.7584C22.3899 21.8043 21.0037 22.2179 19.7887 22.9589C18.5737 23.6999 17.5713 24.743 16.8793 25.9866C13.8816 31.1766 16.1176 38.8042 18.9892 42.9995C20.4259 45.0538 22.105 47.3485 24.302 47.2671C26.4519 47.1779 27.2549 45.8962 29.8501 45.8962C32.4212 45.8962 33.1745 47.2671 35.4161 47.2154C37.7231 47.1779 39.1766 45.1519 40.5629 43.0782C41.5952 41.6144 42.3895 39.9967 42.9165 38.2848C41.5762 37.7179 40.4324 36.7691 39.6278 35.5565C38.8231 34.3439 38.3932 32.9213 38.3916 31.4661Z" fill="white"/>
<path d="M34.1577 18.9271C35.4155 17.417 36.0352 15.4762 35.8852 13.5166C33.9634 13.7184 32.1883 14.6369 30.9134 16.089C30.2901 16.7984 29.8127 17.6237 29.5085 18.5176C29.2043 19.4116 29.0793 20.3568 29.1407 21.2992C30.1019 21.309 31.0528 21.1007 31.9218 20.6898C32.7909 20.2789 33.5553 19.6762 34.1577 18.9271Z" fill="white"/>
<path d="M65.5683 42.0664H58.2315L56.4696 47.2689H53.3621L60.3113 28.021H63.54L70.4893 47.2689H67.3287L65.5683 42.0664ZM58.9914 39.6657H64.807L61.9401 31.2224H61.8599L58.9914 39.6657Z" fill="white"/>
<path d="M85.4973 40.2532C85.4973 44.6141 83.1632 47.4159 79.6409 47.4159C78.7486 47.4626 77.8612 47.2571 77.0803 46.8229C76.2995 46.3886 75.6566 45.7433 75.2255 44.9607H75.1588V51.9115H72.2783V33.2358H75.0666V35.5699H75.1195C75.5705 34.7911 76.2242 34.1491 77.011 33.7122C77.7978 33.2754 78.6884 33.06 79.5879 33.089C83.1495 33.089 85.4973 35.9044 85.4973 40.2532ZM82.5365 40.2532C82.5365 37.4121 81.0682 35.5442 78.828 35.5442C76.6271 35.5442 75.1468 37.4514 75.1468 40.2532C75.1468 43.0808 76.6271 44.9744 78.828 44.9744C81.0683 44.9744 82.5365 43.1201 82.5365 40.2532Z" fill="white"/>
<path d="M100.943 40.2532C100.943 44.6141 98.6087 47.4159 95.0864 47.4159C94.1942 47.4626 93.3068 47.2571 92.5259 46.8228C91.745 46.3886 91.1022 45.7433 90.671 44.9607H90.6044V51.9115H87.7239V33.2358H90.512V35.5699H90.565C91.016 34.7911 91.6697 34.1491 92.4565 33.7122C93.2434 33.2754 94.1339 33.06 95.0334 33.089C98.5951 33.089 100.943 35.9044 100.943 40.2532ZM97.9821 40.2532C97.9821 37.4121 96.5138 35.5442 94.2736 35.5442C92.0727 35.5442 90.5923 37.4514 90.5923 40.2532C90.5923 43.0808 92.0727 44.9744 94.2736 44.9744C96.5138 44.9744 97.9821 43.1201 97.9821 40.2532Z" fill="white"/>
<path d="M111.151 41.9061C111.365 43.8148 113.219 45.0681 115.753 45.0681C118.181 45.0681 119.927 43.8148 119.927 42.0937C119.927 40.5997 118.874 39.7052 116.379 39.0921L113.885 38.4912C110.35 37.6375 108.71 35.9845 108.71 33.3023C108.71 29.9813 111.604 27.7002 115.713 27.7002C119.78 27.7002 122.569 29.9813 122.663 33.3023H119.755C119.581 31.3814 117.993 30.222 115.672 30.222C113.352 30.222 111.764 31.3951 111.764 33.1025C111.764 34.4633 112.778 35.264 115.259 35.877L117.38 36.3977C121.329 37.3316 122.97 38.918 122.97 41.7334C122.97 45.3344 120.101 47.5898 115.539 47.5898C111.271 47.5898 108.389 45.3874 108.202 41.9059L111.151 41.9061Z" fill="white"/>
<path d="M129.187 29.9146V33.2355H131.855V35.5167H129.187V43.253C129.187 44.4549 129.721 45.0149 130.894 45.0149C131.211 45.0094 131.527 44.9872 131.841 44.9483V47.2158C131.314 47.3143 130.778 47.359 130.242 47.349C127.4 47.349 126.292 46.2818 126.292 43.5603V35.5167H124.252V33.2355H126.292V29.9146H129.187Z" fill="white"/>
<path d="M133.401 40.2529C133.401 35.8376 136.001 33.063 140.056 33.063C144.125 33.063 146.713 35.8375 146.713 40.2529C146.713 44.6804 144.139 47.4429 140.056 47.4429C135.975 47.4429 133.401 44.6804 133.401 40.2529ZM143.778 40.2529C143.778 37.2241 142.39 35.4364 140.056 35.4364C137.722 35.4364 136.336 37.2377 136.336 40.2529C136.336 43.2939 137.722 45.0679 140.056 45.0679C142.39 45.0679 143.778 43.2939 143.778 40.2529Z" fill="white"/>
<path d="M149.088 33.2357H151.835V35.6243H151.902C152.088 34.8783 152.525 34.219 153.14 33.7573C153.754 33.2956 154.509 33.0595 155.278 33.0889C155.61 33.0877 155.941 33.1238 156.265 33.1963V35.8907C155.845 35.7626 155.408 35.7038 154.97 35.7166C154.552 35.6996 154.135 35.7734 153.747 35.9329C153.36 36.0924 153.012 36.3338 152.727 36.6405C152.442 36.9472 152.226 37.312 152.095 37.7099C151.964 38.1077 151.921 38.5291 151.969 38.9453V47.2689H149.088L149.088 33.2357Z" fill="white"/>
<path d="M169.546 43.1471C169.158 45.6946 166.677 47.4429 163.503 47.4429C159.421 47.4429 156.887 44.7077 156.887 40.3195C156.887 35.9178 159.434 33.063 163.382 33.063C167.264 33.063 169.706 35.7301 169.706 39.985V40.9719H159.794V41.146C159.749 41.6625 159.813 42.1827 159.984 42.6723C160.155 43.1618 160.428 43.6095 160.785 43.9854C161.142 44.3614 161.575 44.657 162.055 44.8528C162.535 45.0486 163.051 45.14 163.57 45.1209C164.25 45.1847 164.933 45.027 165.517 44.6714C166.101 44.3158 166.555 43.7811 166.81 43.1471L169.546 43.1471ZM159.808 38.9587H166.824C166.85 38.4944 166.779 38.0297 166.617 37.5938C166.455 37.1579 166.204 36.7603 165.881 36.4258C165.558 36.0914 165.169 35.8274 164.739 35.6503C164.309 35.4733 163.847 35.3871 163.382 35.3971C162.913 35.3943 162.448 35.4844 162.014 35.6622C161.58 35.8401 161.185 36.1022 160.853 36.4333C160.521 36.7644 160.257 37.1581 160.078 37.5915C159.899 38.025 159.807 38.4897 159.808 38.9587Z" fill="white"/>
<path d="M56.9445 17.4429H58.1811C58.394 17.4695 58.6101 17.4516 58.8157 17.3904C59.0214 17.3293 59.2121 17.2262 59.3759 17.0877C59.5398 16.9492 59.6731 16.7783 59.7676 16.5857C59.8621 16.3931 59.9156 16.183 59.9249 15.9686C59.9249 15.1157 59.2831 14.5647 58.1948 14.5647C57.9767 14.5342 57.7547 14.5478 57.5419 14.6045C57.3291 14.6613 57.1298 14.7601 56.9558 14.8951C56.7819 15.0301 56.6367 15.1986 56.529 15.3907C56.4212 15.5827 56.353 15.7944 56.3284 16.0133H54.9706C54.994 15.616 55.0989 15.2278 55.2788 14.8729C55.4587 14.5179 55.7097 14.2038 56.0163 13.95C56.3228 13.6963 56.6784 13.5084 57.0607 13.398C57.443 13.2876 57.844 13.2571 58.2386 13.3084C60.0596 13.3084 61.3417 14.3278 61.3417 15.7953C61.346 16.2869 61.1815 16.7652 60.8757 17.1501C60.5699 17.5351 60.1414 17.8036 59.6615 17.9107V18.0197C60.2304 18.0449 60.7661 18.2943 61.1516 18.7134C61.537 19.1325 61.7409 19.6871 61.7186 20.2561C61.6765 20.6651 61.5532 21.0617 61.3559 21.4224C61.1585 21.7832 60.8912 22.1009 60.5695 22.357C60.2478 22.6131 59.8782 22.8024 59.4823 22.9137C59.0865 23.0251 58.6725 23.0564 58.2644 23.0057C57.8555 23.0614 57.4395 23.0343 57.0414 22.9259C56.6432 22.8174 56.2709 22.6299 55.9467 22.3745C55.6225 22.1191 55.3531 21.8011 55.1545 21.4394C54.9558 21.0776 54.832 20.6796 54.7905 20.269H56.1695C56.2527 21.1537 57.0656 21.7244 58.2644 21.7244C59.4632 21.7244 60.2458 21.0834 60.2458 20.1797C60.2458 19.2632 59.5086 18.6986 58.2205 18.6986H56.9445V17.4429Z" fill="white"/>
<path d="M63.2852 20.8079C63.2852 19.5515 64.2221 18.8273 65.8811 18.7243L67.7717 18.6153V18.0129C67.7717 17.2757 67.2858 16.8595 66.3428 16.8595C65.5738 16.8595 65.0425 17.1418 64.8881 17.6353H63.5546C63.6954 16.4364 64.8246 15.6675 66.4079 15.6675C68.1577 15.6675 69.1446 16.5386 69.1446 18.0129V22.7817H67.8171V21.8009H67.7081C67.4869 22.1527 67.1763 22.4395 66.808 22.6321C66.4396 22.8246 66.0268 22.9159 65.6117 22.8967C65.3187 22.9272 65.0225 22.8959 64.7424 22.805C64.4622 22.714 64.2042 22.5653 63.985 22.3685C63.7658 22.1717 63.5903 21.9311 63.4697 21.6623C63.3492 21.3936 63.2863 21.1025 63.2852 20.8079ZM67.7717 20.2115V19.628L66.0672 19.737C65.106 19.8013 64.6701 20.1283 64.6701 20.7436C64.6701 21.3717 65.215 21.7373 65.9643 21.7373C66.1839 21.7595 66.4057 21.7374 66.6165 21.6721C66.8273 21.6069 67.0229 21.4999 67.1915 21.3575C67.3601 21.2152 67.4984 21.0404 67.598 20.8435C67.6977 20.6466 67.7568 20.4317 67.7717 20.2115Z" fill="white"/>
<path d="M72.8003 16.9617V22.7818H71.4229V15.8022H76.0184V16.9616L72.8003 16.9617Z" fill="white"/>
<path d="M84.3663 19.2888C84.3663 21.5063 83.2446 22.8966 81.4827 22.8966C81.0502 22.9262 80.6183 22.8315 80.2377 22.6238C79.8572 22.4161 79.5439 22.104 79.3348 21.7243H79.2258V25.102H77.8484V15.802H79.1744V16.9555H79.2773C79.4902 16.5625 79.8075 16.236 80.1943 16.012C80.5811 15.788 81.0223 15.6753 81.4691 15.6863C83.2446 15.6862 84.3663 17.0705 84.3663 19.2888ZM82.9495 19.2888C82.9495 17.8145 82.2517 16.9237 81.0846 16.9237C79.9252 16.9237 79.2001 17.8334 79.2001 19.2948C79.2001 20.7495 79.9252 21.66 81.0786 21.66C82.2517 21.6599 82.9495 20.7691 82.9495 19.2888Z" fill="white"/>
<path d="M86.2007 25.2816V24.0957C86.3498 24.1146 86.5 24.1232 86.6502 24.1214C86.9437 24.1431 87.2349 24.0557 87.4678 23.876C87.7008 23.6962 87.8592 23.4367 87.9126 23.1473L88.0156 22.8075L85.4893 15.8022H86.9893L88.7392 21.3461H88.8481L90.5919 15.8022H92.0526L89.4506 23.0701C88.8542 24.7685 88.1943 25.3134 86.7714 25.3134C86.6564 25.3134 86.3294 25.3005 86.2007 25.2816Z" fill="white"/>
<path d="M93.1257 20.801H94.4971C94.6318 21.4164 95.2086 21.7372 96.0153 21.7372C96.9326 21.7372 97.4957 21.3331 97.4957 20.7049C97.4957 20.0321 96.9901 19.7112 96.0153 19.7112H94.9709V18.641H95.9972C96.8297 18.641 97.2535 18.3209 97.2535 17.7374C97.2535 17.225 96.8433 16.8337 95.9972 16.8337C95.2267 16.8337 94.6636 17.1607 94.5743 17.7117H93.2468C93.3461 17.0785 93.6898 16.5097 94.2042 16.1274C94.7185 15.7451 95.3623 15.5799 95.9972 15.6674C97.6561 15.6674 98.6052 16.4175 98.6052 17.5966C98.613 17.925 98.5078 18.246 98.3072 18.5061C98.1066 18.7662 97.8228 18.9496 97.5033 19.0255V19.1345C97.8837 19.1836 98.2329 19.3706 98.4846 19.6601C98.7363 19.9496 98.8729 20.3214 98.8686 20.7049C98.8686 22.0317 97.7394 22.9096 96.0153 22.9096C94.4911 22.9096 93.2529 22.211 93.1257 20.801Z" fill="white"/>
<path d="M100.852 22.7818V15.8022H102.218V20.6029H102.327L105.543 15.8023H106.908V22.7818H105.543V17.9555H105.44L102.218 22.7818L100.852 22.7818Z" fill="white"/>
<path d="M114.43 16.9616H112.232V22.7817H110.853V16.9616H108.655V15.8022H114.43V16.9616Z" fill="white"/>
<path d="M121.85 20.8973C121.662 21.5352 121.257 22.0868 120.703 22.4559C120.15 22.825 119.485 22.988 118.824 22.9166C118.364 22.9287 117.907 22.8406 117.485 22.6585C117.063 22.4763 116.685 22.2044 116.378 21.8616C116.071 21.5189 115.843 21.1135 115.709 20.6735C115.574 20.2336 115.537 19.7697 115.6 19.314C115.539 18.857 115.577 18.3921 115.711 17.9508C115.845 17.5096 116.072 17.1023 116.377 16.7565C116.682 16.4108 117.058 16.1346 117.479 15.9467C117.9 15.7589 118.357 15.6637 118.818 15.6676C120.76 15.6676 121.933 16.9944 121.933 19.1861V19.6668H117.005V19.7439C116.983 20.0001 117.015 20.258 117.099 20.5011C117.183 20.7442 117.316 20.9671 117.491 21.1554C117.666 21.3437 117.879 21.4933 118.115 21.5946C118.352 21.6958 118.606 21.7466 118.864 21.7434C119.193 21.7828 119.526 21.7234 119.822 21.5727C120.117 21.4221 120.361 21.187 120.523 20.8973L121.85 20.8973ZM117.005 18.648H120.529C120.546 18.4139 120.514 18.1787 120.435 17.9576C120.356 17.7365 120.232 17.5343 120.071 17.364C119.909 17.1937 119.713 17.0592 119.497 16.9689C119.28 16.8787 119.047 16.8347 118.812 16.84C118.574 16.8367 118.337 16.8813 118.116 16.971C117.896 17.0607 117.695 17.1938 117.527 17.3624C117.358 17.5309 117.225 17.7315 117.136 17.9524C117.046 18.1732 117.001 18.4097 117.005 18.648Z" fill="white"/>
<path d="M127.69 15.8022H130.837C132.202 15.8022 133.003 16.494 133.003 17.577C133.005 17.9206 132.889 18.2546 132.674 18.523C132.46 18.7913 132.159 18.9779 131.824 19.0513V19.1603C132.231 19.186 132.613 19.3674 132.891 19.6668C133.169 19.9663 133.321 20.3609 133.316 20.7693C133.316 21.9871 132.4 22.7818 130.868 22.7818H127.69V15.8022ZM129.055 16.8595V18.6668H130.42C131.253 18.6668 131.651 18.3467 131.651 17.7564C131.651 17.2122 131.304 16.8595 130.573 16.8595L129.055 16.8595ZM129.055 19.6795V21.7245H130.688C131.503 21.7245 131.939 21.365 131.939 20.705C131.939 20.0065 131.445 19.6795 130.516 19.6795L129.055 19.6795Z" fill="white"/>
</g>
<defs>
<clipPath id="clip0_168_242943">
<rect width="185.479" height="62" fill="white"/>
</clipPath>
</defs>
</svg>
