<svg width="210" height="62" viewBox="0 0 210 62" fill="none" xmlns="http://www.w3.org/2000/svg">
<mask id="mask0_168_243126" style="mask-type:luminance" maskUnits="userSpaceOnUse" x="0" y="0" width="210" height="62">
<path d="M0.479248 0.000324249H209.729V62H0.479248V0.000324249Z" fill="white"/>
</mask>
<g mask="url(#mask0_168_243126)">
<path d="M201.979 62H8.22919C3.96678 62 0.479248 58.5127 0.479248 54.25V7.75027C0.479248 3.48754 3.96678 0.000263214 8.22919 0.000263214H201.979C206.241 0.000263214 209.729 3.48754 209.729 7.75027V54.25C209.729 58.5127 206.241 62 201.979 62Z" fill="#100F0D"/>
<path d="M201.979 0.000324249H8.22919C3.96678 0.000324249 0.479248 3.4876 0.479248 7.75033V54.2501C0.479248 58.5127 3.96678 62 8.22919 62H201.979C206.241 62 209.729 58.5127 209.729 54.2501V7.75033C209.729 3.4876 206.241 0.000324249 201.979 0.000324249ZM201.979 1.24027C205.569 1.24027 208.489 4.16037 208.489 7.75033V54.2501C208.489 57.84 205.569 60.7601 201.979 60.7601H8.22919C4.63942 60.7601 1.71924 57.84 1.71924 54.2501V7.75033C1.71924 4.16037 4.63942 1.24027 8.22919 1.24027H201.979Z" fill="#A2A2A1"/>
<path d="M166.23 46.4999H169.122V27.1236H166.23V46.4999ZM192.28 34.103L188.965 42.5041H188.866L185.425 34.103H182.309L187.469 45.8443L184.527 52.376H187.544L195.496 34.103H192.28ZM175.878 44.2989C174.93 44.2989 173.609 43.8247 173.609 42.6528C173.609 41.1572 175.254 40.5851 176.675 40.5851C177.946 40.5851 178.544 40.8596 179.318 41.233C179.093 43.0278 177.548 44.2989 175.878 44.2989ZM176.227 33.68C174.133 33.68 171.963 34.6022 171.065 36.6451L173.634 37.7176C174.182 36.6451 175.204 36.2962 176.277 36.2962C177.772 36.2962 179.293 37.1938 179.318 38.7888V38.9886C178.794 38.6896 177.672 38.2417 176.302 38.2417C173.535 38.2417 170.717 39.7622 170.717 42.6032C170.717 45.1965 172.986 46.8659 175.528 46.8659C177.473 46.8659 178.544 45.9947 179.218 44.9717H179.318V46.4675H182.109V39.0382C182.109 35.5988 179.543 33.68 176.227 33.68ZM158.352 36.4621H154.239V29.8189H158.352C160.515 29.8189 161.742 31.6108 161.742 33.1406C161.742 34.6426 160.515 36.4621 158.352 36.4621ZM158.278 27.1236H151.348V46.4999H154.239V39.1593H158.278C161.483 39.1593 164.635 36.8372 164.635 33.1406C164.635 29.4438 161.483 27.1236 158.278 27.1236ZM120.488 44.3022C118.49 44.3022 116.817 42.6297 116.817 40.3326C116.817 38.0107 118.49 36.3118 120.488 36.3118C122.461 36.3118 124.008 38.0107 124.008 40.3326C124.008 42.6297 122.461 44.3022 120.488 44.3022ZM123.808 35.1881H123.709C123.059 34.4146 121.811 33.714 120.238 33.714C116.941 33.714 113.92 36.6111 113.92 40.3326C113.92 44.0277 116.941 46.9 120.238 46.9C121.811 46.9 123.059 46.2009 123.709 45.4012H123.808V46.3496C123.808 48.8729 122.461 50.2201 120.288 50.2201C118.514 50.2201 117.416 48.9473 116.966 47.8732L114.444 48.9228C115.168 50.6709 117.092 52.8179 120.288 52.8179C123.684 52.8179 126.556 50.82 126.556 45.9511V34.114H123.808V35.1881ZM128.552 46.4999H131.449V27.122H128.552V46.4999ZM135.719 40.1077C135.645 37.5595 137.693 36.2622 139.165 36.2622C140.315 36.2622 141.289 36.8359 141.612 37.6602L135.719 40.1077ZM144.709 37.91C144.159 36.4358 142.487 33.714 139.066 33.714C135.67 33.714 132.849 36.3863 132.849 40.3077C132.849 44.0028 135.645 46.9 139.39 46.9C142.412 46.9 144.159 45.0523 144.885 43.9783L142.637 42.4794C141.887 43.5782 140.864 44.3022 139.39 44.3022C137.917 44.3022 136.868 43.6278 136.194 42.3058L145.009 38.6586L144.709 37.91ZM74.4822 35.7385V38.5345H81.1737C80.9735 40.1077 80.4497 41.2564 79.6513 42.0545C78.6766 43.0294 77.1529 44.1023 74.4822 44.1023C70.3607 44.1023 67.1397 40.7821 67.1397 36.6606C67.1397 32.5408 70.3607 29.2206 74.4822 29.2206C76.7049 29.2206 78.3277 30.0933 79.5259 31.2169L81.4989 29.2456C79.8249 27.6474 77.6038 26.423 74.4822 26.423C68.8386 26.423 64.0942 31.0187 64.0942 36.6606C64.0942 42.3058 68.8386 46.9 74.4822 46.9C77.528 46.9 79.8249 45.9 81.6229 44.0277C83.4706 42.1802 84.0458 39.584 84.0458 37.4853C84.0458 36.8359 83.9959 36.2376 83.8952 35.7385H74.4822ZM91.653 44.3022C89.6567 44.3022 87.9331 42.6544 87.9331 40.3077C87.9331 37.9346 89.6567 36.3118 91.653 36.3118C93.6509 36.3118 95.3744 37.9346 95.3744 40.3077C95.3744 42.6544 93.6509 44.3022 91.653 44.3022ZM91.653 33.714C88.0073 33.714 85.036 36.487 85.036 40.3077C85.036 44.1023 88.0073 46.9 91.653 46.9C95.2986 46.9 98.2715 44.1023 98.2715 40.3077C98.2715 36.487 95.2986 33.714 91.653 33.714ZM106.09 44.3022C104.092 44.3022 102.368 42.6544 102.368 40.3077C102.368 37.9346 104.092 36.3118 106.09 36.3118C108.088 36.3118 109.81 37.9346 109.81 40.3077C109.81 42.6544 108.088 44.3022 106.09 44.3022ZM106.09 33.714C102.444 33.714 99.4726 36.487 99.4726 40.3077C99.4726 44.1023 102.444 46.9 106.09 46.9C109.735 46.9 112.707 44.1023 112.707 40.3077C112.707 36.487 109.735 33.714 106.09 33.714Z" fill="white"/>
<path d="M32.5909 30.1076L16.0881 47.6228C16.0897 47.6257 16.0897 47.6305 16.0912 47.6334C16.598 49.5354 18.334 50.9351 20.3956 50.9351C21.2202 50.9351 21.9935 50.7118 22.657 50.3212L22.7097 50.2901L41.2849 39.5721L32.5909 30.1076Z" fill="#EB3131"/>
<path d="M49.2855 27.125L49.2703 27.114L41.2505 22.4655L32.2156 30.5054L41.2828 39.5698L49.2593 34.968C50.6573 34.2113 51.6077 32.7375 51.6077 31.0385C51.6077 29.349 50.6712 27.8826 49.2855 27.125Z" fill="#F6B60B"/>
<path d="M16.0876 14.3797C15.9884 14.7454 15.9358 15.1299 15.9358 15.5267V46.4771C15.9358 46.8739 15.9884 47.2582 16.0893 47.6226L33.1577 30.5554L16.0876 14.3797Z" fill="#5778C5"/>
<path d="M32.7129 31.0015L41.2533 22.4624L22.7 11.7055C22.0257 11.3009 21.2383 11.0683 20.3966 11.0683C18.3351 11.0683 16.5961 12.4712 16.0892 14.3746C16.0892 14.3762 16.0876 14.3778 16.0876 14.3794L32.7129 31.0015Z" fill="#3BAD49"/>
</g>
<mask id="mask1_168_243126" style="mask-type:luminance" maskUnits="userSpaceOnUse" x="0" y="0" width="210" height="62">
<path d="M0.479248 0H209.729V62H0.479248V0Z" fill="white"/>
</mask>
<g mask="url(#mask1_168_243126)">
<path d="M67.2337 19.9115C66.465 19.4713 65.8603 18.8646 65.4201 18.0911C64.9792 17.3179 64.7593 16.464 64.7593 15.5286C64.7593 14.5941 64.9792 13.7399 65.4201 12.9671C65.8603 12.1939 66.465 11.5868 67.2337 11.1463C68.0023 10.7058 68.8539 10.4855 69.789 10.4855C71.2366 10.4855 72.4273 11.0113 73.3625 12.0633L72.3243 13.0746C71.9917 12.6791 71.6208 12.3827 71.2117 12.1848C70.8026 11.9869 70.3329 11.8878 69.8026 11.8878C69.1464 11.8878 68.5484 12.0384 68.0091 12.3396C67.4698 12.6412 67.0426 13.0678 66.728 13.6207C66.4132 14.1736 66.2561 14.8098 66.2561 15.5286C66.2561 16.248 66.4132 16.8842 66.728 17.4371C67.0426 17.9897 67.4698 18.4173 68.0091 18.7178C68.5484 19.0194 69.1464 19.17 69.8026 19.17C70.8994 19.17 71.8206 18.7159 72.5669 17.808L73.6323 18.8328C73.1649 19.3812 72.6026 19.8085 71.9466 20.1139C71.2904 20.4191 70.5713 20.5723 69.789 20.5723C68.8539 20.5723 68.0023 20.352 67.2337 19.9115Z" fill="white"/>
<path d="M75.2903 10.7017H76.7738V15.3809H76.8545L80.6981 10.7017H82.5589V10.7826L78.4864 15.6099L82.7747 20.276V20.3569H80.8328L76.8545 15.9339H76.7738V20.3569H75.2903V10.7017Z" fill="white"/>
<path d="M89.679 16.5004L88.6003 13.5401L88.2362 12.4346H88.1553L87.7912 13.5401L86.7125 16.5004H89.679ZM87.3461 10.7017H89.0318L92.6862 20.3569H91.0546L90.1645 17.8757H86.227L85.3369 20.3569H83.7053L87.3461 10.7017Z" fill="white"/>
<path d="M98.2692 16.0553C97.6667 16.5856 96.9249 16.8509 96.0442 16.8509C95.4595 16.8509 94.9315 16.732 94.4596 16.4933C93.9877 16.2555 93.6168 15.9115 93.347 15.4619C93.0771 15.0123 92.9424 14.4821 92.9424 13.8708V10.7017H94.4392V13.6146C94.4392 14.199 94.6102 14.6508 94.952 14.9696C95.2934 15.2886 95.7517 15.4486 96.3273 15.4486C97.1096 15.4486 97.7567 15.1429 98.2692 14.5313V10.7017H99.7391V20.3569H98.2692V16.0553Z" fill="white"/>
<path d="M107.02 16.5004L105.941 13.5401L105.577 12.4346H105.496L105.132 13.5401L104.054 16.5004H107.02ZM104.687 10.7017H106.373L110.027 20.3569H108.396L107.506 17.8757H103.568L102.678 20.3569H101.046L104.687 10.7017Z" fill="white"/>
<path d="M112.536 12.1042H109.826V10.7017H116.717V12.1042H114.02V20.3569H112.536V12.1042Z" fill="white"/>
<path d="M121.894 18.968C122.245 18.968 122.555 18.887 122.825 18.7254C123.095 18.5634 123.301 18.35 123.445 18.0847C123.589 17.8197 123.661 17.5385 123.661 17.2418C123.661 16.9455 123.589 16.6646 123.445 16.399C123.301 16.134 123.095 15.9183 122.825 15.7518C122.555 15.5853 122.245 15.5024 121.894 15.5024H119.737V18.968H121.894ZM118.253 10.7017H119.737V14.1403H121.786C122.389 14.1403 122.946 14.2638 123.459 14.5112C123.971 14.7587 124.38 15.1179 124.686 15.5899C124.992 16.0618 125.144 16.6125 125.144 17.2418C125.144 17.8712 124.992 18.4219 124.686 18.8938C124.38 19.3658 123.971 19.7279 123.459 19.9792C122.946 20.2309 122.389 20.3569 121.786 20.3569H118.253V10.7017Z" fill="white"/>
<path d="M129.918 10.7017H131.388V16.0417L131.307 17.9026H131.388L135.716 10.7017H137.402V20.3569H135.932V14.8818L136.013 13.0212H135.932L131.536 20.3569H129.918V10.7017Z" fill="white"/>
<path d="M140.308 19.952C139.701 19.5383 139.286 18.9271 139.061 18.118L140.423 17.5786C140.539 18.082 140.767 18.4775 141.104 18.7655C141.441 19.0531 141.839 19.1969 142.297 19.1969C142.792 19.1969 143.214 19.0418 143.565 18.7315C143.916 18.4215 144.091 18.0373 144.091 17.5786C144.091 17.2819 144.005 17.0102 143.835 16.7627C143.664 16.5155 143.43 16.3202 143.133 16.1764C142.837 16.0326 142.513 15.9607 142.163 15.9607H141.367V14.6657H142.082C142.567 14.6657 142.971 14.5332 143.295 14.2679C143.619 14.0029 143.781 13.6457 143.781 13.1961C143.781 12.8006 143.63 12.4724 143.329 12.2114C143.027 11.9509 142.652 11.8204 142.203 11.8204C141.799 11.8204 141.456 11.9419 141.178 12.1848C140.899 12.4271 140.706 12.715 140.598 13.0474L139.29 12.5081C139.479 11.9781 139.823 11.5085 140.322 11.099C140.821 10.6899 141.452 10.4855 142.216 10.4855C142.8 10.4855 143.32 10.6002 143.774 10.8295C144.228 11.0585 144.583 11.3734 144.839 11.7734C145.095 12.1735 145.224 12.6253 145.224 13.1284C145.224 14.0635 144.814 14.7557 143.996 15.2053V15.2863C144.455 15.4929 144.828 15.7942 145.116 16.1897C145.403 16.5852 145.547 17.0662 145.547 17.6327C145.547 18.1811 145.405 18.68 145.122 19.1295C144.839 19.5788 144.45 19.9316 143.956 20.1878C143.461 20.444 142.908 20.5723 142.297 20.5723C141.578 20.5723 140.915 20.3653 140.308 19.952Z" fill="white"/>
</g>
</svg>
