<svg width="117" height="40" viewBox="0 0 117 40" fill="none" xmlns="http://www.w3.org/2000/svg">
<path fill-rule="evenodd" clip-rule="evenodd" d="M114.507 8.56417C113.558 8.56417 112.787 7.98437 112.787 7.24579C112.787 6.522 113.558 5.93597 114.494 5.93597H114.507C115.457 5.93597 116.215 6.522 116.215 7.25279C116.215 7.98437 115.457 8.57196 114.507 8.56417ZM114.507 5.69434H114.494C113.329 5.69434 112.379 6.38466 112.379 7.24542C112.379 8.12175 113.329 8.80507 114.494 8.80507C115.673 8.80507 116.604 8.12175 116.604 7.24542C116.605 6.38466 115.673 5.69434 114.507 5.69434Z" fill="white"/>
<path fill-rule="evenodd" clip-rule="evenodd" d="M114.394 7.22469H114.177V6.73185C114.228 6.72596 114.296 6.71943 114.394 6.71943C114.735 6.71943 114.855 6.8482 114.855 6.97566C114.855 7.15541 114.644 7.22469 114.394 7.22469ZM115.118 7.67247C115.081 7.45612 114.969 7.34042 114.803 7.31624V7.30643C115.007 7.26002 115.172 7.14237 115.172 6.95216C115.172 6.81162 115.11 6.71423 114.997 6.65083C114.885 6.58677 114.697 6.54102 114.408 6.54102C114.185 6.54102 114.032 6.55866 113.875 6.57566V8.03067H114.177V7.40383H114.387C114.628 7.40383 114.75 7.47377 114.796 7.6594C114.833 7.84896 114.877 7.98426 114.922 8.03067H115.239C115.21 7.98426 115.163 7.89798 115.118 7.67247Z" fill="white"/>
<path fill-rule="evenodd" clip-rule="evenodd" d="M38.8517 16.9299L42.5738 10.6582L43.9008 16.9213L38.8517 16.9299ZM74.4957 6.20703C70.9116 6.20703 68.0472 8.3734 67.4979 11.4526C66.9962 14.3366 69.101 16.6258 72.2824 16.6258H77.5524C79.5667 16.6258 80.612 17.471 80.3607 18.8864C80.1541 20.0562 78.9118 20.9005 77.422 20.9005H66.4336C66.822 20.2523 67.0972 19.5308 67.2352 18.7617C67.7987 15.5588 65.8948 13.5181 62.3669 13.5181H56.5734C55.2787 13.5181 54.3325 12.5481 54.5343 11.4326C54.6495 10.7587 55.4805 9.44327 57.0446 9.44327H65.0371C67.7911 9.44327 68.2557 6.20703 68.2557 6.20703H56.1964C52.6142 6.20703 49.7488 8.3734 49.2081 11.4526C48.6969 14.3366 50.8046 16.6258 53.986 16.6258H59.2569C61.2693 16.6258 62.3127 17.471 62.0671 18.8864C61.8605 20.0562 60.6153 20.9005 59.1284 20.9005H49.171L45.4432 6.20703H41.0661C41.0661 6.20703 39.4478 8.93213 38.454 10.5464C36.0922 14.3424 38.8043 16.8847 38.8433 16.9294L34.8023 16.9371L32.0769 21.6001L29.6751 16.9209C32.5624 16.3269 34.609 14.3366 35.0736 11.6772C35.6057 8.67133 33.7266 6.20703 30.8688 6.20703H3.21663C0.464551 6.20703 0 9.44327 0 9.44327H8.11156L5.5213 24.1301C5.5213 24.1301 9.58232 24.5203 10.4038 19.8506C10.9807 16.5706 12.2363 9.44327 12.2363 9.44327H26.8459C28.9545 9.44327 30.1139 10.3351 29.856 11.8C29.6085 13.2173 27.934 14.3776 26.071 14.3776H19.6663C16.6962 14.3776 15.8452 17.372 15.8452 17.372L14.6533 24.1301H18.7848L19.9995 17.2445H24.9468L28.3538 24.1301H35.0251L37.3592 20.0562H44.7178L45.4898 24.1301H79.0612C82.2217 24.1301 84.9909 21.819 85.5278 18.7617C86.0952 15.5588 84.1942 13.5181 80.6596 13.5181H74.8708C73.579 13.5181 72.6251 12.5481 72.826 11.4326C72.9412 10.7587 73.4781 10.1352 74.3443 9.73643C74.7213 9.5394 75.0631 9.44327 75.3391 9.44327H89.4394L86.852 24.1301C86.852 24.1301 90.4266 24.4746 91.548 20.6463C91.5908 20.4341 91.6336 20.2285 91.6698 20.0048L94.1001 6.20703H74.4957Z" fill="white"/>
<path fill-rule="evenodd" clip-rule="evenodd" d="M93.6085 19.1511L93.3862 20.45H97.4251L97.6549 19.1206H94.0937L93.6085 19.1511ZM93.0637 22.2945H97.1016L97.3343 20.968H93.2926L93.0637 22.2945ZM92.7383 24.1384H96.7734L97.0108 22.81H92.9729L92.7383 24.1384ZM107.326 24.1381H112.014L112.242 22.8154H107.562L107.326 24.1381ZM110.857 20.968H106.173L105.943 22.2945H110.628L110.857 20.968ZM109.476 19.1206H104.789L104.556 20.45H109.244L109.476 19.1206ZM93.7107 18.6064H97.742L97.9794 17.279H93.9367L93.7107 18.6064ZM108.085 17.279H103.401L103.17 18.6064H107.85L108.085 17.279ZM112.201 13.5898H95.8474L95.6137 14.9135H111.969L112.201 13.5898ZM107.64 13.0739H114.002L114.238 11.7464H107.873L107.64 13.0739ZM110.171 15.4353H94.264L94.0285 16.7618H109.939L110.171 15.4353ZM108.195 9.89788L107.966 11.2272H114.326L114.559 9.89788H108.195ZM111.787 6.20703H95.8776L95.644 7.53639H111.554L111.787 6.20703ZM113.174 8.05387H95.5551L95.3224 9.38322H112.943L113.174 8.05387Z" fill="white"/>
<path fill-rule="evenodd" clip-rule="evenodd" d="M90.7514 0.00770855L89.9844 4.42904H93.9559L93.9958 4.19208C94.6765 0.27164 91.7914 -0.000960727 90.9666 2.52568e-06C90.831 2.52568e-06 90.7514 0.00770855 90.7514 0.00770855Z" fill="white"/>
<path fill-rule="evenodd" clip-rule="evenodd" d="M25.936 39.9998C22.5324 39.9998 19.7734 37.1967 19.7734 33.7387C19.7734 30.2806 22.5324 27.4766 25.936 27.4766C28.2703 27.4766 30.3011 28.7953 31.3468 30.7391L29.0401 31.8825C28.4134 30.8036 27.2586 30.0793 25.936 30.0793C23.9469 30.0793 22.3342 31.7178 22.3342 33.7387C22.3342 35.7596 23.9469 37.3971 25.936 37.3971C27.3487 37.3971 28.5708 36.5716 29.1605 35.3685V35.3695L31.4492 36.5398C30.4366 38.5915 28.3489 39.9998 25.936 39.9998Z" fill="white"/>
<path fill-rule="evenodd" clip-rule="evenodd" d="M57.2368 39.9998C53.8332 39.9998 51.0742 37.1967 51.0742 33.7387C51.0742 30.2806 53.8332 27.4766 57.2368 27.4766C60.6405 27.4766 63.3994 30.2806 63.3994 33.7387C63.3994 37.1967 60.6405 39.9998 57.2368 39.9998ZM57.2368 37.3976C55.2477 37.3976 53.635 35.7601 53.635 33.7392C53.635 31.7183 55.2477 30.0798 57.2368 30.0798C59.2259 30.0798 60.8386 31.7183 60.8386 33.7392C60.8386 35.7601 59.2259 37.3976 57.2368 37.3976Z" fill="white"/>
<path fill-rule="evenodd" clip-rule="evenodd" d="M36.8203 27.5859H39.4366V37.3272H45.7617V39.6375H39.4366H36.8203V37.3272V27.5859Z" fill="white"/>
<path fill-rule="evenodd" clip-rule="evenodd" d="M76.4805 27.5859H79.0968V36.3908C79.0968 38.3906 77.2869 39.5635 75.4543 39.8664C72.9129 40.2865 71.3692 39.5798 71.3692 39.5798C68.8619 38.8963 68.7539 37.059 68.7539 35.0207V27.5859H71.3702V35.96C71.3702 37.159 72.7906 37.8512 73.8358 37.8608C74.9435 37.8714 76.4805 37.1272 76.4805 35.8456V27.5859Z" fill="white"/>
<path fill-rule="evenodd" clip-rule="evenodd" d="M90.6326 30.3218H87.1916V37.2901H90.6326C92.0938 36.982 92.5484 35.7653 92.5484 35.7653C92.5484 35.7653 93.2131 33.9914 92.6439 32.2566C92.0747 30.5219 90.6326 30.3218 90.6326 30.3218ZM84.5547 30.3217V27.6126H87.1915H89.1704C91.6353 27.4056 94.1394 28.3936 95.1098 30.9114C95.1098 30.9114 95.869 33.7185 95.1671 36.4678C94.2302 40.1374 89.9879 39.9991 87.1915 39.9991H84.5547V37.29V30.3217Z" fill="white"/>
</svg>
