<svg width="72" height="210" viewBox="0 0 72 210" fill="none" xmlns="http://www.w3.org/2000/svg">
<path d="M71 1L44.3494 80M1.00001 208.5L25.7952 135" stroke="#DADADA" stroke-width="2" stroke-linecap="round"/>
<path d="M18.3637 107.703L24.3695 97.7812H27.0648V112H24.3695V102.078L18.3637 112H15.6781V97.7812H18.3637V107.703ZM39.7793 97.7812V99.9004H32.8359V97.7812H39.7793ZM41.7617 97.7812V112H39.0664V97.7812H41.7617ZM32.4062 97.7812H35.082L34.7305 104.881C34.6784 105.929 34.584 106.847 34.4473 107.635C34.3105 108.423 34.125 109.096 33.8906 109.656C33.6562 110.21 33.3633 110.659 33.0117 111.004C32.6602 111.349 32.2435 111.603 31.7617 111.766C31.2865 111.922 30.7331 112 30.1016 112H29.4277V109.891L29.8086 109.852C30.1406 109.826 30.4271 109.744 30.668 109.607C30.9154 109.471 31.127 109.266 31.3027 108.992C31.4785 108.712 31.6217 108.354 31.7324 107.918C31.8496 107.482 31.9408 106.951 32.0059 106.326C32.0775 105.701 32.1296 104.969 32.1621 104.129L32.4062 97.7812ZM47.5426 107.703L53.5484 97.7812H56.2437V112H53.5484V102.078L47.5426 112H44.857V97.7812H47.5426V107.703Z" fill="#C7C7C7"/>
</svg>
