<svg width="0" height="0" class="hidden">
  <symbol fill="none" xmlns="http://www.w3.org/2000/svg" viewBox="0 0 24 24" id="add">
    <path d="M6 12H18" stroke-width="1.5" stroke-linecap="round" stroke-linejoin="round"></path>
    <path d="M12 18V6" stroke-width="1.5" stroke-linecap="round" stroke-linejoin="round"></path>
  </symbol>
  <symbol fill="none" xmlns="http://www.w3.org/2000/svg" viewBox="0 0 24 24" id="arrow-down">
    <path d="M19 8.5L12 15.5L5 8.5" stroke-width="1.5" stroke-linecap="round"
      stroke-linejoin="round"></path>
  </symbol>
  <symbol xmlns="http://www.w3.org/2000/svg" viewBox="0 0 32 32" id="arrow-dropdown">
    <path d="M9.33325 13.3335L15.9999 20.0002L22.6666 13.3335H9.33325Z"></path>
  </symbol>
  <symbol fill="none" xmlns="http://www.w3.org/2000/svg" viewBox="0 0 24 24" id="check">
    <path d="M18.29 8L11.77 14.52C11 15.29 9.73995 15.29 8.96995 14.52L6 11.55" stroke-width="1.5"
      stroke-miterlimit="10" stroke-linecap="round" stroke-linejoin="round"></path>
  </symbol>
  <symbol xmlns="http://www.w3.org/2000/svg" viewBox="0 0 24 24" id="close">
    <path
      d="M19 6.41L17.59 5L12 10.59L6.41 5L5 6.41L10.59 12L5 17.59L6.41 19L12 13.41L17.59 19L19 17.59L13.41 12L19 6.41Z"></path>
  </symbol>
  <symbol fill="none" xmlns="http://www.w3.org/2000/svg" viewBox="0 0 24 24" id="close-circle">
    <path d="M12 22C17.5 22 22 17.5 22 12C22 6.5 17.5 2 12 2C6.5 2 2 6.5 2 12C2 17.5 6.5 22 12 22Z"
      stroke-width="1.5" stroke-linecap="round" stroke-linejoin="round"></path>
    <path d="M9.16992 14.8299L14.8299 9.16992" stroke-width="1.5" stroke-linecap="round"
      stroke-linejoin="round"></path>
    <path d="M14.8299 14.8299L9.16992 9.16992" stroke-width="1.5" stroke-linecap="round"
      stroke-linejoin="round"></path>
  </symbol>
  <symbol fill="none" xmlns="http://www.w3.org/2000/svg" viewBox="0 0 24 24" id="convertshape">
    <path
      d="M11 16.15V18.85C11 21.1 10.1 22 7.85 22H5.15C2.9 22 2 21.1 2 18.85V16.15C2 13.9 2.9 13 5.15 13H7.85C10.1 13 11 13.9 11 16.15Z"
      stroke-width="1.5" stroke-linecap="round" stroke-linejoin="round"></path>
    <path d="M22 15C22 18.87 18.87 22 15 22L16.05 20.25" stroke-width="1.5" stroke-linecap="round"
      stroke-linejoin="round"></path>
    <path d="M2 9C2 5.13 5.13 2 9 2L7.95 3.75" stroke-width="1.5" stroke-linecap="round"
      stroke-linejoin="round"></path>
    <path
      d="M17.5 11C19.9853 11 22 8.98528 22 6.5C22 4.01472 19.9853 2 17.5 2C15.0147 2 13 4.01472 13 6.5C13 8.98528 15.0147 11 17.5 11Z"
      stroke-width="1.5" stroke-linecap="round" stroke-linejoin="round"></path>
  </symbol>
  <symbol fill="none" xmlns="http://www.w3.org/2000/svg" viewBox="0 0 18 18" id="crown">
    <path
      d="M12.5249 14.235H5.47491C5.15991 14.235 4.8074 13.9875 4.7024 13.6875L1.59741 5.00252C1.15491 3.75752 1.67241 3.37502 2.73741 4.14002L5.66241 6.23252C6.14991 6.57002 6.70491 6.39752 6.91491 5.85002L8.23491 2.33252C8.65491 1.20752 9.35241 1.20752 9.77241 2.33252L11.0924 5.85002C11.3024 6.39752 11.8574 6.57002 12.3374 6.23252L15.0824 4.27502C16.2524 3.43502 16.8149 3.86252 16.3349 5.22002L13.3049 13.7025C13.1924 13.9875 12.8399 14.235 12.5249 14.235Z"
      stroke-width="1.5" stroke-linecap="round" stroke-linejoin="round"></path>
    <path d="M4.875 16.5H13.125" stroke-width="1.5" stroke-linecap="round" stroke-linejoin="round"></path>
    <path d="M7.125 10.5H10.875" stroke-width="1.5" stroke-linecap="round" stroke-linejoin="round"></path>
  </symbol>
  <symbol fill="none" xmlns="http://www.w3.org/2000/svg" viewBox="0 0 24 24" id="heart">
    <path
      d="M12.62 20.8101C12.28 20.9301 11.72 20.9301 11.38 20.8101C8.48 19.8201 2 15.6901 2 8.6901C2 5.6001 4.49 3.1001 7.56 3.1001C9.38 3.1001 10.99 3.9801 12 5.3401C13.01 3.9801 14.63 3.1001 16.44 3.1001C19.51 3.1001 22 5.6001 22 8.6901C22 15.6901 15.52 19.8201 12.62 20.8101Z"
      stroke-width="1.5" stroke-linecap="round" stroke-linejoin="round"></path>
  </symbol>
  <symbol fill="none" xmlns="http://www.w3.org/2000/svg" viewBox="0 0 24 24" id="heart-add">
    <path
      d="M17.1999 21.9999C19.8509 21.9999 21.9999 19.8509 21.9999 17.1999C21.9999 14.5489 19.8509 12.3999 17.1999 12.3999C14.5489 12.3999 12.3999 14.5489 12.3999 17.1999C12.3999 19.8509 14.5489 21.9999 17.1999 21.9999Z"
      stroke-width="1.5" stroke-miterlimit="10" stroke-linecap="round" stroke-linejoin="round"></path>
    <path d="M18.9899 17.2598H15.4099" stroke-width="1.5" stroke-miterlimit="10"
      stroke-linecap="round" stroke-linejoin="round"></path>
    <path d="M17.2 15.5098V19.0997" stroke-width="1.5" stroke-miterlimit="10" stroke-linecap="round"
      stroke-linejoin="round"></path>
    <path
      d="M22 8.69012C22 10.6601 21.49 12.4001 20.69 13.9101C19.81 12.9801 18.57 12.4001 17.2 12.4001C14.55 12.4001 12.4 14.5501 12.4 17.2001C12.4 18.4301 12.87 19.5501 13.63 20.4001C13.26 20.5701 12.92 20.7101 12.62 20.8101C12.28 20.9301 11.72 20.9301 11.38 20.8101C8.48 19.8201 2 15.6901 2 8.69012C2 5.60012 4.49 3.1001 7.56 3.1001C9.37 3.1001 10.99 3.98014 12 5.33014C13.01 3.98014 14.63 3.1001 16.44 3.1001C19.51 3.1001 22 5.60012 22 8.69012Z"
      stroke-width="1.5" stroke-linecap="round" stroke-linejoin="round"></path>
  </symbol>
  <symbol xmlns="http://www.w3.org/2000/svg" viewBox="0 0 24 24" id="heart-filled">
    <path
      d="M12.62 20.8101C12.28 20.9301 11.72 20.9301 11.38 20.8101C8.48 19.8201 2 15.6901 2 8.6901C2 5.6001 4.49 3.1001 7.56 3.1001C9.38 3.1001 10.99 3.9801 12 5.3401C13.01 3.9801 14.63 3.1001 16.44 3.1001C19.51 3.1001 22 5.6001 22 8.6901C22 15.6901 15.52 19.8201 12.62 20.8101Z"></path>
  </symbol>
  <symbol fill="none" xmlns="http://www.w3.org/2000/svg" viewBox="0 0 24 24" id="info">
    <path d="M12 2C17.5 2 22 6.5 22 12C22 17.5 17.5 22 12 22C6.5 22 2 17.5 2 12C2 6.5 6.5 2 12 2Z"
      stroke-width="1.5" stroke-linecap="round" stroke-linejoin="round"></path>
    <path d="M12 16V11" stroke-width="1.5" stroke-linecap="round" stroke-linejoin="round"></path>
    <path d="M11.9946 8H12.0036" stroke-width="2" stroke-linecap="round" stroke-linejoin="round"></path>
  </symbol>
  <symbol fill="none" xmlns="http://www.w3.org/2000/svg" viewBox="0 0 32 32" id="scan">
    <path d="M2.66699 11.9998V8.6665C2.66699 5.3465 5.34699 2.6665 8.66699 2.6665H12.0003"
      stroke-width="1.5" stroke-linecap="round" stroke-linejoin="round"></path>
    <path d="M20 2.6665H23.3333C26.6533 2.6665 29.3333 5.3465 29.3333 8.6665V11.9998"
      stroke-width="1.5" stroke-linecap="round" stroke-linejoin="round"></path>
    <path d="M29.333 21.3335V23.3335C29.333 26.6535 26.653 29.3335 23.333 29.3335H21.333"
      stroke-width="1.5" stroke-linecap="round" stroke-linejoin="round"></path>
    <path d="M12.0003 29.3333H8.66699C5.34699 29.3333 2.66699 26.6533 2.66699 23.3333V20"
      stroke-width="1.5" stroke-linecap="round" stroke-linejoin="round"></path>
    <path
      d="M13.0647 18.6394C11.6451 19.3869 11.6451 20.6131 13.0647 21.3606C14.6765 22.2131 17.3235 22.2131 18.9353 21.3606C20.3549 20.6131 20.3549 19.3869 18.9353 18.6394C17.3383 17.7869 14.6913 17.7869 13.0647 18.6394Z"
      stroke-width="1.5" stroke-linecap="round" stroke-linejoin="round"></path>
    <path
      d="M16.0682 14C16.0227 14 15.9659 14 15.9204 14C14.8523 13.9659 14 13.0795 14 12C14 10.8977 14.8977 10 16 10C17.1023 10 18 10.8977 18 12C17.9886 13.0909 17.1364 13.9659 16.0682 14Z"
      stroke-width="1.5" stroke-linecap="round" stroke-linejoin="round"></path>
  </symbol>
  <symbol fill="none" xmlns="http://www.w3.org/2000/svg" viewBox="0 0 24 24" id="shopping-cart">
    <path
      d="M2 2H3.74001C4.82001 2 5.67 2.93 5.58 4L4.75 13.96C4.61 15.59 5.89999 16.99 7.53999 16.99H18.19C19.63 16.99 20.89 15.81 21 14.38L21.54 6.88C21.66 5.22 20.4 3.87 18.73 3.87H5.82001"
      stroke-width="1.5" stroke-miterlimit="10" stroke-linecap="round" stroke-linejoin="round"></path>
    <path
      d="M16.25 22C16.9404 22 17.5 21.4404 17.5 20.75C17.5 20.0596 16.9404 19.5 16.25 19.5C15.5596 19.5 15 20.0596 15 20.75C15 21.4404 15.5596 22 16.25 22Z"
      stroke-width="1.5" stroke-miterlimit="10" stroke-linecap="round" stroke-linejoin="round"></path>
    <path
      d="M8.25 22C8.94036 22 9.5 21.4404 9.5 20.75C9.5 20.0596 8.94036 19.5 8.25 19.5C7.55964 19.5 7 20.0596 7 20.75C7 21.4404 7.55964 22 8.25 22Z"
      stroke-width="1.5" stroke-miterlimit="10" stroke-linecap="round" stroke-linejoin="round"></path>
    <path d="M9 8H21" stroke-width="1.5" stroke-miterlimit="10" stroke-linecap="round"
      stroke-linejoin="round"></path>
  </symbol>
  <symbol fill="none" xmlns="http://www.w3.org/2000/svg" viewBox="0 0 24 24" id="trash">
    <path
      d="M21 5.97998C17.67 5.64998 14.32 5.47998 10.98 5.47998C9 5.47998 7.02 5.57998 5.04 5.77998L3 5.97998"
      stroke-width="1.5" stroke-linecap="round" stroke-linejoin="round"></path>
    <path d="M8.5 4.97L8.72 3.66C8.88 2.71 9 2 10.69 2H13.31C15 2 15.13 2.75 15.28 3.67L15.5 4.97"
      stroke-width="1.5" stroke-linecap="round" stroke-linejoin="round"></path>
    <path
      d="M18.8499 9.14014L18.1999 19.2101C18.0899 20.7801 17.9999 22.0001 15.2099 22.0001H8.7899C5.9999 22.0001 5.9099 20.7801 5.7999 19.2101L5.1499 9.14014"
      stroke-width="1.5" stroke-linecap="round" stroke-linejoin="round"></path>
    <path d="M10.3301 16.5H13.6601" stroke-width="1.5" stroke-linecap="round"
      stroke-linejoin="round"></path>
    <path d="M9.5 12.5H14.5" stroke-width="1.5" stroke-linecap="round" stroke-linejoin="round"></path>
  </symbol>

  <symbol fill="none" xmlns="http://www.w3.org/2000/svg" viewBox="0 0 32 32" id="wifi">
    <path d="M6.54663 15.7868C12.28 11.3601 19.7333 11.3601 25.4666 15.7868" stroke-width="1.5"
      stroke-linecap="round" stroke-linejoin="round"></path>
    <path d="M2.66675 11.1468C10.7467 4.9068 21.2534 4.9068 29.3334 11.1468" stroke-width="1.5"
      stroke-linecap="round" stroke-linejoin="round"></path>
    <path d="M9.05347 20.6534C13.2535 17.4 18.7335 17.4 22.9335 20.6534" stroke-width="1.5"
      stroke-linecap="round" stroke-linejoin="round"></path>
    <path d="M12.5334 25.5335C14.6401 23.9068 17.3735 23.9068 19.4801 25.5335" stroke-width="1.5"
      stroke-linecap="round" stroke-linejoin="round"></path>
  </symbol>
  <symbol fill="none" xmlns="http://www.w3.org/2000/svg" viewBox="0 0 24 24" id="message">
    <path d="M21 5.25L12 13.5L3 5.25" stroke-width="1.5" stroke-linecap="round"
      stroke-linejoin="round"></path>
    <path
      d="M3 5.25H21V18C21 18.1989 20.921 18.3897 20.7803 18.5303C20.6397 18.671 20.4489 18.75 20.25 18.75H3.75C3.55109 18.75 3.36032 18.671 3.21967 18.5303C3.07902 18.3897 3 18.1989 3 18V5.25Z"
      stroke-width="1.5" stroke-linecap="round" stroke-linejoin="round"></path>
    <path d="M10.3594 12L3.23438 18.5344" stroke-width="1.5" stroke-linecap="round"
      stroke-linejoin="round"></path>
    <path d="M20.7656 18.5344L13.6406 12" stroke-width="1.5" stroke-linecap="round"
      stroke-linejoin="round"></path>
  </symbol>
  <symbol fill="none" xmlns="http://www.w3.org/2000/svg" viewBox="0 0 32 32" id="microphone">
    <path
      d="M16.0001 20.6665C18.9467 20.6665 21.3334 18.2798 21.3334 15.3332V7.99984C21.3334 5.05317 18.9467 2.6665 16.0001 2.6665C13.0534 2.6665 10.6667 5.05317 10.6667 7.99984V15.3332C10.6667 18.2798 13.0534 20.6665 16.0001 20.6665Z"
      stroke-width="1.5" stroke-linecap="round" stroke-linejoin="round"></path>
    <path
      d="M5.80005 12.8667V15.1334C5.80005 20.76 10.3734 25.3334 16 25.3334C21.6267 25.3334 26.2 20.76 26.2 15.1334V12.8667"
      stroke-width="1.5" stroke-linecap="round" stroke-linejoin="round"></path>
    <path d="M14.1467 8.57316C15.3467 8.13316 16.6534 8.13316 17.8534 8.57316" stroke-width="1.5"
      stroke-linecap="round" stroke-linejoin="round"></path>
    <path d="M14.9333 11.3998C15.64 11.2131 16.3733 11.2131 17.08 11.3998" stroke-width="1.5"
      stroke-linecap="round" stroke-linejoin="round"></path>
    <path d="M16 25.3335V29.3335" stroke-width="1.5" stroke-linecap="round" stroke-linejoin="round"></path>
  </symbol>
  <symbol fill="none" xmlns="http://www.w3.org/2000/svg" viewBox="0 0 32 32" id="microphone-slash">
    <path
      d="M21.3334 8.39984V7.99984C21.3334 5.05317 18.9467 2.6665 16.0001 2.6665C13.0534 2.6665 10.6667 5.05317 10.6667 7.99984V14.6665"
      stroke-width="1.5" stroke-linecap="round" stroke-linejoin="round"></path>
    <path
      d="M12.0532 18.9198C13.0266 19.9998 14.4399 20.6665 15.9999 20.6665C18.9466 20.6665 21.3332 18.2798 21.3332 15.3332V14.6665"
      stroke-width="1.5" stroke-linecap="round" stroke-linejoin="round"></path>
    <path
      d="M9.04004 22.6C10.8667 24.2934 13.3067 25.3334 16 25.3334C21.6267 25.3334 26.2 20.76 26.2 15.1334V12.8667"
      stroke-width="1.5" stroke-linecap="round" stroke-linejoin="round"></path>
    <path d="M5.80005 12.8667V15.1334C5.80005 16.5467 6.08005 17.88 6.60005 19.1067"
      stroke-width="1.5" stroke-linecap="round" stroke-linejoin="round"></path>
    <path d="M26.76 3.78662L5.23999 25.32" stroke-width="1.5" stroke-linecap="round"
      stroke-linejoin="round"></path>
    <path d="M14.6667 4V8" stroke-width="1.5" stroke-linecap="round" stroke-linejoin="round"></path>
    <path d="M16 25.3335V29.3335" stroke-width="1.5" stroke-linecap="round" stroke-linejoin="round"></path>
  </symbol>
  <symbol fill="none" xmlns="http://www.w3.org/2000/svg" viewBox="0 0 24 24" id="minus">
    <path d="M6 12H18" stroke-width="1.5" stroke-linecap="round" stroke-linejoin="round"></path>
  </symbol>
  <symbol fill="none" xmlns="http://www.w3.org/2000/svg" viewBox="0 0 32 32" id="moon">
    <path
      d="M2.70662 16.5599C3.18662 23.4266 9.01329 29.0133 15.9866 29.3199C20.9066 29.5333 25.3066 27.2399 27.9466 23.6266C29.04 22.1466 28.4533 21.1599 26.6266 21.4933C25.7333 21.6533 24.8133 21.7199 23.8533 21.6799C17.3333 21.4133 12 15.9599 11.9733 9.51995C11.96 7.78661 12.32 6.14661 12.9733 4.65328C13.6933 2.99995 12.8266 2.21328 11.16 2.91995C5.87996 5.14661 2.26662 10.4666 2.70662 16.5599Z"
      stroke-width="1.5" stroke-linecap="round" stroke-linejoin="round"></path>
  </symbol>
  <symbol fill="none" xmlns="http://www.w3.org/2000/svg" viewBox="0 0 24 24" id="phone">
    <path
      d="M14.9438 3.75C16.216 4.09141 17.3759 4.76142 18.3073 5.69279C19.2387 6.62416 19.9087 7.78412 20.2501 9.05625"
      stroke-width="1.5" stroke-linecap="round" stroke-linejoin="round"></path>
    <path
      d="M14.1655 6.64697C14.9306 6.85017 15.6284 7.25202 16.1882 7.81179C16.748 8.37156 17.1498 9.06936 17.353 9.83447"
      stroke-width="1.5" stroke-linecap="round" stroke-linejoin="round"></path>
    <path
      d="M8.67188 11.6998C9.44364 13.2935 10.7324 14.579 12.3281 15.3467C12.4458 15.4024 12.576 15.4265 12.7059 15.4167C12.8358 15.4068 12.9608 15.3633 13.0688 15.2904L15.4125 13.7248C15.5161 13.6546 15.6357 13.6117 15.7603 13.6002C15.8849 13.5887 16.0104 13.609 16.125 13.6592L20.5125 15.5435C20.6625 15.6059 20.7877 15.7159 20.869 15.8565C20.9504 15.9971 20.9832 16.1606 20.9625 16.3217C20.8234 17.407 20.2937 18.4046 19.4723 19.1276C18.6509 19.8506 17.5943 20.2495 16.5 20.2498C13.1185 20.2498 9.87548 18.9065 7.48439 16.5154C5.0933 14.1243 3.75 10.8813 3.75 7.49979C3.75025 6.40553 4.1492 5.34886 4.87221 4.5275C5.59522 3.70613 6.59274 3.17635 7.67813 3.03729C7.83922 3.01659 8.00266 3.04943 8.14326 3.13074C8.28386 3.21206 8.39384 3.33733 8.45625 3.48729L10.3406 7.88416C10.3896 7.99699 10.4101 8.12013 10.4003 8.24275C10.3905 8.36537 10.3507 8.48369 10.2844 8.58729L8.71875 10.9685C8.64905 11.0762 8.60814 11.2 8.59993 11.328C8.59172 11.4561 8.6165 11.5841 8.67188 11.6998V11.6998Z"
      stroke-width="1.5" stroke-linecap="round" stroke-linejoin="round"></path>
  </symbol>
  <symbol fill="none" xmlns="http://www.w3.org/2000/svg" viewBox="0 0 24 24" id="profile">
    <path
      d="M12.1601 10.87C12.0601 10.86 11.9401 10.86 11.8301 10.87C9.45006 10.79 7.56006 8.84 7.56006 6.44C7.56006 3.99 9.54006 2 12.0001 2C14.4501 2 16.4401 3.99 16.4401 6.44C16.4301 8.84 14.5401 10.79 12.1601 10.87Z"
      stroke-width="1.5" stroke-linecap="round" stroke-linejoin="round"></path>
    <path
      d="M7.15997 14.56C4.73997 16.18 4.73997 18.82 7.15997 20.43C9.90997 22.27 14.42 22.27 17.17 20.43C19.59 18.81 19.59 16.17 17.17 14.56C14.43 12.73 9.91997 12.73 7.15997 14.56Z"
      stroke-width="1.5" stroke-linecap="round" stroke-linejoin="round"></path>
  </symbol>
  <symbol xmlns="http://www.w3.org/2000/svg" viewBox="0 0 24 24" id="pin">
    <path
      d="M3.74983 21C3.94872 21 4.13945 20.9208 4.28007 20.78L9.24425 15.8109L10.1802 16.7809C10.8857 17.5271 11.858 17.9629 12.884 17.9926C13.226 17.9936 13.5656 17.936 13.8882 17.8222C14.3866 17.6504 14.8245 17.3375 15.1486 16.9214C15.4728 16.5054 15.6694 16.0041 15.7144 15.4784C15.7958 14.717 15.7394 13.9472 15.5479 13.2059L15.3874 12.4236C15.357 12.2986 15.3592 12.1677 15.3939 12.0438C15.4286 11.9198 15.4945 11.8068 15.5854 11.7157L16.7756 10.5236C16.8226 10.4764 16.8861 10.4494 16.9526 10.4485C16.976 10.4441 17.0001 10.4464 17.0222 10.455C17.0443 10.4636 17.0636 10.4783 17.0779 10.4973C17.4546 10.8972 17.9614 11.1495 18.5073 11.2089C19.0531 11.2684 19.6023 11.131 20.0561 10.8216C20.3224 10.6316 20.5441 10.3857 20.7058 10.1012C20.8675 9.81666 20.9652 9.50026 20.9923 9.17404C21.0193 8.84781 20.975 8.51961 20.8624 8.21228C20.7498 7.90495 20.5717 7.62588 20.3404 7.3945L16.6497 3.69865C16.2707 3.30985 15.7673 3.06675 15.2274 3.01186C14.6875 2.95697 14.1455 3.09377 13.6962 3.39836C13.4299 3.58832 13.2081 3.83411 13.0463 4.11862C12.8846 4.40313 12.7867 4.71951 12.7596 5.04574C12.7325 5.37196 12.7767 5.70019 12.8893 6.00755C13.0018 6.31491 13.1799 6.59402 13.4112 6.82545L13.4682 6.8825C13.5112 6.92582 13.5353 6.98438 13.5353 7.04541C13.5353 7.10645 13.5112 7.16501 13.4682 7.20832L12.2682 8.40949C12.1762 8.50144 12.0618 8.56785 11.9364 8.6022C11.8109 8.63656 11.6787 8.63767 11.5527 8.60543L10.94 8.44853C10.1863 8.25149 9.40324 8.19224 8.62851 8.27361C8.07904 8.33057 7.55729 8.5436 7.12476 8.88756C6.69224 9.23153 6.36697 9.69211 6.1873 10.215C5.99122 10.7523 5.95256 11.3346 6.07586 11.8931C6.19916 12.4517 6.47929 12.9634 6.88329 13.3681L8.20177 14.7344L3.21959 19.7185C3.11473 19.8235 3.04333 19.9572 3.0144 20.1029C2.98548 20.2485 3.00033 20.3994 3.05708 20.5365C3.11383 20.6737 3.20994 20.7909 3.33324 20.8734C3.45655 20.9559 3.60152 21 3.74983 21ZM7.60103 10.715C7.68554 10.4592 7.84231 10.2335 8.05235 10.0651C8.2624 9.89664 8.51672 9.79278 8.78451 9.76606C8.95718 9.74807 9.13066 9.73905 9.30425 9.73904C9.72973 9.73906 10.1534 9.79381 10.565 9.90194L11.1822 10.0596C11.5604 10.1554 11.9569 10.1514 12.3331 10.0481C12.7092 9.94486 13.0523 9.74576 13.3287 9.47027L14.5287 8.2691C14.8525 7.94403 15.0343 7.50371 15.0343 7.04466C15.0343 6.58561 14.8525 6.14529 14.5287 5.82022L14.4717 5.76316C14.394 5.68562 14.3343 5.59196 14.2967 5.4888C14.2592 5.38564 14.2447 5.27549 14.2543 5.16611C14.2638 5.05673 14.2973 4.95078 14.3522 4.85574C14.4071 4.7607 14.4822 4.67888 14.5722 4.61605C14.7322 4.51907 14.9208 4.48031 15.106 4.50629C15.2913 4.53228 15.4619 4.62142 15.5892 4.75869L19.2821 8.45529C19.3598 8.53283 19.4195 8.62649 19.4571 8.72965C19.4946 8.83281 19.5091 8.94296 19.4995 9.05234C19.49 9.16172 19.4565 9.26767 19.4016 9.36271C19.3467 9.45775 19.2716 9.53957 19.1816 9.6024C19.0198 9.7007 18.8289 9.73949 18.6416 9.71209C18.4544 9.68468 18.2825 9.5928 18.1556 9.45226C18.0013 9.29299 17.8167 9.1663 17.6127 9.07965C17.4086 8.993 17.1893 8.94815 16.9676 8.94777C16.5001 8.9499 16.0517 9.13406 15.7174 9.46127L14.5279 10.6527C14.2578 10.9232 14.061 11.2582 13.956 11.6259C13.8511 11.9937 13.8414 12.3822 13.9279 12.7547L14.0922 13.549C14.2435 14.1281 14.2895 14.7298 14.2279 15.3252C14.21 15.5681 14.1212 15.8003 13.9725 15.993C13.8238 16.1857 13.6219 16.3305 13.3917 16.4093C13.008 16.5102 12.6037 16.5004 12.2254 16.3808C11.8471 16.2612 11.5104 16.0368 11.2542 15.7336L7.95427 12.3178C7.7485 12.1124 7.60586 11.8522 7.54326 11.5682C7.48065 11.2841 7.5007 10.988 7.60103 10.715Z"></path>
  </symbol>
  <symbol xmlns="http://www.w3.org/2000/svg" viewBox="0 0 24 24" id="pinned">
    <path
      d="M12.7577 22.2354C12.7578 22.4383 12.6747 22.6328 12.5266 22.7763C12.4162 22.8832 12.2754 22.956 12.1221 22.9854C11.9689 23.0148 11.81 22.9996 11.6656 22.9416C11.5212 22.8836 11.3977 22.7855 11.3108 22.6597C11.2239 22.5338 11.1775 22.3859 11.1774 22.2346L11.176 15.0486L9.17654 15.0141C8.57435 15.0136 7.98465 14.8466 7.47683 14.5328C6.96902 14.2189 6.56422 13.7712 6.31008 13.2424C6.05447 12.7359 5.95371 12.1692 6.01966 11.6094C6.08561 11.0495 6.31553 10.5197 6.68231 10.0824C7.19866 9.46514 7.82593 8.94326 8.53396 8.54189L9.10713 8.21321C9.22497 8.14561 9.3226 8.04948 9.39043 7.93427C9.45826 7.81906 9.49397 7.68871 9.49405 7.55604L9.49317 5.82473C9.4929 5.76252 9.46725 5.70291 9.42179 5.6589C9.37634 5.6149 9.31477 5.59006 9.25052 5.5898L9.16559 5.58976C8.82099 5.58967 8.48049 5.51684 8.16778 5.37636C7.85508 5.23588 7.5777 5.03112 7.35496 4.77634C7.13222 4.52156 6.96947 4.22289 6.87805 3.90112C6.78663 3.57935 6.76873 3.24222 6.82561 2.91322C6.9334 2.36962 7.23514 1.8802 7.67808 1.5305C8.12102 1.18081 8.67697 0.993097 9.24874 1.00019L14.7496 1.00391C15.0942 1.00394 15.4347 1.07669 15.7475 1.21711C16.0602 1.35752 16.3376 1.56222 16.5604 1.81695C16.7832 2.07167 16.946 2.3703 17.0375 2.69204C17.129 3.01378 17.147 3.3509 17.0902 3.67991C16.9827 4.23023 16.676 4.72521 16.2252 5.07594C15.7744 5.42667 15.2091 5.61016 14.6307 5.59346C14.6059 5.59004 14.5807 5.59339 14.5578 5.60313C14.5349 5.61287 14.5152 5.62861 14.5011 5.64858C14.4523 5.69723 14.425 5.76246 14.4252 5.83033L14.4266 7.54812C14.4268 7.67933 14.4618 7.80834 14.5283 7.92273C14.5948 8.03712 14.6906 8.13306 14.8064 8.20133L15.5085 8.64964C16.2032 9.0461 16.8184 9.56048 17.3248 10.1681C17.6828 10.5797 17.9097 11.0828 17.9782 11.6166C18.0466 12.1503 17.9535 12.6916 17.7103 13.1748C17.5548 13.4895 17.3448 13.7759 17.0893 14.0218C16.3031 14.7401 15.2545 15.127 14.1734 15.0976L12.7541 15.0731L12.7577 22.2354Z"></path>
  </symbol>
  <symbol fill="none" xmlns="http://www.w3.org/2000/svg" viewBox="0 0 24 24" id="search">
    <path d="M11.5 21C16.7467 21 21 16.7467 21 11.5C21 6.25329 16.7467 2 11.5 2C6.25329 2 2 6.25329 2 11.5C2 16.7467 6.25329 21 11.5 21Z" stroke-width="1.5" stroke-linecap="round" stroke-linejoin="round"></path>
    <path d="M22 22L20 20" stroke-width="1.5" stroke-linecap="round" stroke-linejoin="round"></path>
  </symbol>
</svg>